# xmcd
#
# Track frame offsets:
#	150
#	10747
#	22870
#	34767
#	45187
#	56645
#	70705
#	83367
#	97115
#	115675
#
# Disc length: 1696 seconds
#
# Revision: 0
# Processed by: cddbd v1.5.1PL0 Copyright (c) Steve Scherf et al.
# Submitted via: dBpowerAMP V4.0
#
DISCID=66069e0a
DTITLE=Conway Twitty - Greatest Hits
DYEAR=1974
DGENRE=Country
TTITLE0=Lonely Blue Boy
TTITLE1=What Am I Living For
TTITLE2=What A Dream
TTITLE3=It's Only Make Believe
TTITLE4=Hello Darlin'
TTITLE5=You've Never Been This Far Before
TTITLE6=Linda On My Mind
TTITLE7=Slow Hand
TTITLE8=Heartache Tonight
TTITLE9=Don't Call Him A Cowboy
EXTD=
EXTT0=
EXTT1=
EXTT2=
EXTT3=
EXTT4=
EXTT5=
EXTT6=
EXTT7=
EXTT8=
EXTT9=
PLAYORDER=
